<?xml version="1.0" encoding="UTF-8"?>
<svg width="129px" height="37px" viewBox="0 0 129 37" version="1.1" xmlns="http://www.w3.org/2000/svg" xmlns:xlink="http://www.w3.org/1999/xlink">
    <!-- Generator: Sketch 49.2 (51160) - http://www.bohemiancoding.com/sketch -->
    <title>Logo</title>
    <desc>Created with Sketch.</desc>
    <defs>
        <polygon id="path-1" points="0 0 31 0 31 36 0 36"></polygon>
    </defs>
    <g id="Page-1" stroke="none" stroke-width="1" fill="none" fill-rule="evenodd">
        <g id="Splash-page-mobile" transform="translate(-23.000000, -17.000000)">
            <g id="Logo" transform="translate(23.000000, 17.000000)">
                <path d="M43,30.4905632 L43,27.0072186 C43,26.8869088 43.0397291,26.7703587 43.1173815,26.6782465 L56.2063205,10.8199113 L43.8993228,10.8199113 C43.6302483,10.8199113 43.4117381,10.5924506 43.4117381,10.3123543 L43.4117381,6.50755696 C43.4117381,6.22746071 43.6302483,6 43.8993228,6 L62.5124153,6 C62.7814898,6 63,6.22746071 63,6.50755696 L63,9.98902173 C63,10.1093315 62.9602709,10.2277615 62.8844244,10.3217535 L49.7936795,26.176329 L62.5124153,26.176329 C62.7814898,26.176329 63,26.4037898 63,26.6857658 L63,30.4905632 C63,30.7706594 62.7814898,31 62.5124153,31 L43.4893905,31 C43.2185102,31 43,30.7706594 43,30.4905632" id="Fill-1" fill="#1A1A1A"></path>
                <path d="M75.0533333,16 C72.851954,16 71.4193103,17.5771006 71,20 L79,20 C78.6873563,17.6140351 77.2896552,16 75.0533333,16 M84.9277494,23.2709434 L71.4530171,23.2709434 C71.9948964,25.6190566 73.7289102,26.8468868 76.1854298,26.8468868 C77.8890223,26.8468868 79.1591114,26.3808491 80.5394776,25.2623585 C80.7353147,25.1028302 81.0262184,25.0938679 81.2220554,25.2569811 L83.6424497,27.2770755 C83.8534974,27.4545283 83.8820174,27.7646226 83.6937856,27.9617925 C81.9065346,29.8564151 79.4100871,31 76.1131792,31 C70.2989092,31 66,27.1533962 66,21.5681132 L66,21.5 C66,16.2893396 69.935755,12 75.5712999,12 C82.0358251,12 85,16.7320755 85,21.9086792 L85,21.9767925 C85,22.4876415 84.9619734,22.7941509 84.9277494,23.2709434" id="Fill-3" fill="#1A1A1A"></path>
                <path d="M96.0514943,16 C93.851954,16 92.4174713,17.5771006 92,20 L100,20 C99.6873563,17.6140351 98.2878161,16 96.0514943,16 M105.927749,23.2709434 L92.4549184,23.2709434 C92.9948964,25.6190566 94.7289102,26.8468868 97.1854298,26.8468868 C98.8890223,26.8468868 100.161013,26.3808491 101.539478,25.2623585 C101.737216,25.1028302 102.02812,25.0938679 102.222055,25.2569811 L104.644351,27.2770755 C104.853497,27.4545283 104.883919,27.7646226 104.695687,27.9617925 C102.908436,29.8564151 100.411988,31 97.1131792,31 C91.2989092,31 87,27.1533962 87,21.5681132 L87,21.5 C87,16.2893396 90.9376564,12 96.5712999,12 C103.037726,12 106,16.7320755 106,21.9086792 L106,21.9767925 C106,22.4876415 105.963875,22.7941509 105.927749,23.2709434" id="Fill-5" fill="#1A1A1A"></path>
                <path d="M123,22.4621225 C123,19.1794102 120.931034,17 118.482759,17 C116.034483,17 114,19.1794102 114,22.4621225 L114,22.5378775 C114,25.8205898 116.034483,28 118.482759,28 C120.931034,28 123,25.857496 123,22.5378775 L123,22.4621225 Z M120.332149,31.6898531 C117.456577,31.6898531 115.680378,30.3776933 114.399645,28.8549169 L114.399645,36.494893 C114.399645,36.7744725 114.173413,37 113.89483,37 L109.506684,37 C109.228101,37 109,36.7744725 109,36.494893 L109,12.8573772 C109,12.5796615 109.228101,12.354134 109.506684,12.354134 L113.89483,12.354134 C114.173413,12.354134 114.399645,12.5796615 114.399645,12.8573772 L114.399645,15.0809662 C115.714032,13.310296 117.525755,12 120.332149,12 C124.772647,12 129,15.4705137 129,21.8076493 L129,21.88034 C129,28.2174756 124.843694,31.6898531 120.332149,31.6898531 Z" id="Fill-7" fill="#1A1A1A"></path>
                <g id="Group-11">
                    <mask id="mask-2" fill="white">
                        <use xlink:href="#path-1"></use>
                    </mask>
                    <g id="Clip-10"></g>
                    <path d="M4,12.4095633 C4,12.0812869 4.16820411,11.7763307 4.44610654,11.5987386 L14.4268262,5.16057528 C14.7632344,4.94351822 15.1965428,4.94710594 15.5274661,5.16775072 L25.5666916,11.8606421 C25.8372808,12.041822 26,12.3431905 26,12.6660853 L26,24.1270564 C26,24.6634205 25.5575501,25.0975346 25.0090584,25.0975346 L12.3663259,25.0975346 L8.1923045,28 L8.1923045,25.0975346 L4,25.0975346 L4,12.4095633 Z M5.80017831,35.8176918 L14.2517088,29.915425 L30.0032095,29.915425 C30.5541159,29.915425 31,29.4743884 31,28.9317138 L31,10.6822388 C31,10.3573601 30.8360178,10.0524459 30.5633284,9.87094938 L16.0720951,0.169960426 C15.7386033,-0.0532802925 15.3000892,-0.0569102229 14.9647548,0.1608856 L0.449569094,9.56059033 C0.169509658,9.74208685 0,10.0506309 0,10.3809546 L0,28.9317138 C0,29.4743884 0.447726597,29.915425 0.998632987,29.915425 L4.22484398,29.915425 L4.22484398,35.0136622 C4.22484398,35.8122469 5.14056464,36.2786929 5.80017831,35.8176918 Z M22,18.96128 L22,15.03872 C22,14.46464 21.5961619,14 21.0955361,14 L18.9027952,14 C18.4038381,14 18,14.46464 18,15.03872 L18,18.96128 C18,19.53536 18.4038381,20 18.9027952,20 L21.0955361,20 C21.5961619,20 22,19.53536 22,18.96128 Z M12.096828,20 L9.90317195,20 C9.40567613,20 9,19.53536 9,18.96128 L9,15.03872 C9,14.46464 9.40567613,14 9.90317195,14 L12.096828,14 C12.5959933,14 13,14.46464 13,15.03872 L13,18.96128 C13,19.53536 12.5959933,20 12.096828,20 Z" id="Fill-9" fill="#FE3780" mask="url(#mask-2)"></path>
                </g>
            </g>
        </g>
    </g>
</svg>